HIERARCHY
ROOT Hips
{
	OFFSET 0.053599 88.859886 3.107447
	CHANNELS 6 Xposition Yposition Zposition Zrotation Yrotation Xrotation 
	JOINT Spine
	{
		OFFSET -0.000000 8.814246 -2.080107
		CHANNELS 3 Zrotation Yrotation Xrotation
		JOINT Spine1
		{
			OFFSET 0.000000 8.844141 0.000000
			CHANNELS 3 Zrotation Yrotation Xrotation
			JOINT Spine2
			{
				OFFSET -0.000000 11.682268 0.000000
				CHANNELS 3 Zrotation Yrotation Xrotation
				JOINT Spine3
				{
					OFFSET 0.000000 11.746700 0.000000
					CHANNELS 3 Zrotation Yrotation Xrotation
					JOINT Neck
					{
						OFFSET -0.000000 17.658264 -0.000000
						CHANNELS 3 Zrotation Yrotation Xrotation
						JOINT Neck1
						{
							OFFSET -0.000000 5.101515 -0.000000
							CHANNELS 3 Zrotation Yrotation Xrotation
							JOINT Head
							{
								OFFSET 0.000000 5.101515 0.000000
								CHANNELS 3 Zrotation Yrotation Xrotation
								JOINT HeadEnd
								{
									OFFSET 0.000000 11.655085 0.000000
									CHANNELS 3 Zrotation Yrotation Xrotation
									End Site
									{
										OFFSET 0.000000 0.000000 0.000000
									}
								}
							}
						}
					}
					JOINT RightShoulder
					{
						OFFSET -2.625389 11.175210 0.000000
						CHANNELS 3 Zrotation Yrotation Xrotation
						JOINT RightArm
						{
							OFFSET -0.000000 10.434715 -0.000000
							CHANNELS 3 Zrotation Yrotation Xrotation
							JOINT RightForeArm
							{
								OFFSET -0.000000 29.628420 0.000000
								CHANNELS 3 Zrotation Yrotation Xrotation
								JOINT RightHand
								{
									OFFSET -0.000000 22.857611 0.000000
									CHANNELS 3 Zrotation Yrotation Xrotation
									JOINT RightHandThumb1
									{
										OFFSET -2.867323 3.959563 2.944291
										CHANNELS 3 Zrotation Yrotation Xrotation
										JOINT RightHandThumb2
										{
											OFFSET 0.000000 3.350399 0.000000
											CHANNELS 3 Zrotation Yrotation Xrotation
											JOINT RightHandThumb3
											{
												OFFSET 0.000000 3.756509 -0.000000
												CHANNELS 3 Zrotation Yrotation Xrotation
												JOINT RightHandThumb4
												{
													OFFSET 0.000000 3.147345 0.000000
													CHANNELS 3 Zrotation Yrotation Xrotation
													End Site
													{
														OFFSET 0.000000 0.000000 0.000000
													}
												}
											}
										}
									}
									JOINT RightHandIndex1
									{
										OFFSET -0.086752 10.030893 2.345280
										CHANNELS 3 Zrotation Yrotation Xrotation
										JOINT RightHandIndex2
										{
											OFFSET -0.000000 4.061090 0.000000
											CHANNELS 3 Zrotation Yrotation Xrotation
											JOINT RightHandIndex3
											{
												OFFSET -0.000000 3.248873 0.000000
												CHANNELS 3 Zrotation Yrotation Xrotation
												JOINT RightHandIndex4
												{
													OFFSET 0.000000 2.639709 -0.000000
													CHANNELS 3 Zrotation Yrotation Xrotation
													End Site
													{
														OFFSET 0.000000 0.000000 0.000000
													}
												}
											}
										}
									}
									JOINT RightHandMiddle1
									{
										OFFSET 0.104102 9.502952 0.006768
										CHANNELS 3 Zrotation Yrotation Xrotation
										JOINT RightHandMiddle2
										{
											OFFSET 0.000000 4.568727 0.000000
											CHANNELS 3 Zrotation Yrotation Xrotation
											JOINT RightHandMiddle3
											{
												OFFSET 0.000000 3.654981 -0.000000
												CHANNELS 3 Zrotation Yrotation Xrotation
												JOINT RightHandMiddle4
												{
													OFFSET -0.000000 2.741236 -0.000000
													CHANNELS 3 Zrotation Yrotation Xrotation
													End Site
													{
														OFFSET 0.000000 0.000000 0.000000
													}
												}
											}
										}
									}
									JOINT RightHandRing1
									{
										OFFSET 0.086752 8.921708 -2.267442
										CHANNELS 3 Zrotation Yrotation Xrotation
										JOINT RightHandRing2
										{
											OFFSET -0.000000 4.061090 0.000000
											CHANNELS 3 Zrotation Yrotation Xrotation
											JOINT RightHandRing3
											{
												OFFSET 0.000000 3.654981 -0.000000
												CHANNELS 3 Zrotation Yrotation Xrotation
												JOINT RightHandRing4
												{
													OFFSET 0.000000 2.741236 -0.000000
													CHANNELS 3 Zrotation Yrotation Xrotation
													End Site
													{
														OFFSET 0.000000 0.000000 0.000000
													}
												}
											}
										}
									}
									JOINT RightHandPinky1
									{
										OFFSET -0.173504 7.976997 -4.467199
										CHANNELS 3 Zrotation Yrotation Xrotation
										JOINT RightHandPinky2
										{
											OFFSET 0.000000 3.350399 -0.000000
											CHANNELS 3 Zrotation Yrotation Xrotation
											JOINT RightHandPinky3
											{
												OFFSET -0.000000 2.842763 0.000000
												CHANNELS 3 Zrotation Yrotation Xrotation
												JOINT RightHandPinky4
												{
													OFFSET -0.000000 2.639709 0.000000
													CHANNELS 3 Zrotation Yrotation Xrotation
													End Site
													{
														OFFSET 0.000000 0.000000 0.000000
													}
												}
											}
										}
									}
									JOINT RightForeArmEnd
									{
										OFFSET 0.000000 0.000000 0.000000
										CHANNELS 3 Zrotation Yrotation Xrotation
										End Site
										{
											OFFSET 0.000000 0.000000 0.000000
										}
									}
								}
								JOINT RightArmEnd
								{
									OFFSET 0.000000 0.000000 0.000000
									CHANNELS 3 Zrotation Yrotation Xrotation
									End Site
									{
										OFFSET 0.000000 0.000000 0.000000
									}
								}
							}
						}
					}
					JOINT LeftShoulder
					{
						OFFSET 2.625389 11.175210 0.000000
						CHANNELS 3 Zrotation Yrotation Xrotation
						JOINT LeftArm
						{
							OFFSET 0.000000 10.813635 -0.000000
							CHANNELS 3 Zrotation Yrotation Xrotation
							JOINT LeftForeArm
							{
								OFFSET 0.000000 28.724781 0.000000
								CHANNELS 3 Zrotation Yrotation Xrotation
								JOINT LeftHand
								{
									OFFSET 0.644384 25.716167 -0.328871
									CHANNELS 3 Zrotation Yrotation Xrotation
									JOINT LeftHandThumb1
									{
										OFFSET 2.867323 3.959563 2.944291
										CHANNELS 3 Zrotation Yrotation Xrotation
										JOINT LeftHandThumb2
										{
											OFFSET 0.000000 3.350399 0.000000
											CHANNELS 3 Zrotation Yrotation Xrotation
											JOINT LeftHandThumb3
											{
												OFFSET -0.000000 3.756509 0.000000
												CHANNELS 3 Zrotation Yrotation Xrotation
												JOINT LeftHandThumb4
												{
													OFFSET -0.000000 3.100000 0.000000
													CHANNELS 3 Zrotation Yrotation Xrotation
													End Site
													{
														OFFSET 0.000000 0.000000 0.000000
													}
												}
											}
										}
									}
									JOINT LeftHandIndex1
									{
										OFFSET 0.086752 10.030893 2.345280
										CHANNELS 3 Zrotation Yrotation Xrotation
										JOINT LeftHandIndex2
										{
											OFFSET -0.000000 4.061090 -0.000000
											CHANNELS 3 Zrotation Yrotation Xrotation
											JOINT LeftHandIndex3
											{
												OFFSET 0.000000 3.248873 -0.000000
												CHANNELS 3 Zrotation Yrotation Xrotation
												JOINT LeftHandIndex4
												{
													OFFSET 0.000000 2.639709 -0.000000
													CHANNELS 3 Zrotation Yrotation Xrotation
													End Site
													{
														OFFSET 0.000000 0.000000 0.000000
													}
												}
											}
										}
									}
									JOINT LeftHandMiddle1
									{
										OFFSET -0.104102 9.502952 0.006768
										CHANNELS 3 Zrotation Yrotation Xrotation
										JOINT LeftHandMiddle2
										{
											OFFSET -0.000000 4.568727 -0.000000
											CHANNELS 3 Zrotation Yrotation Xrotation
											JOINT LeftHandMiddle3
											{
												OFFSET 0.000000 3.654981 0.000000
												CHANNELS 3 Zrotation Yrotation Xrotation
												JOINT LeftHandMiddle4
												{
													OFFSET 0.000000 2.741236 -0.000000
													CHANNELS 3 Zrotation Yrotation Xrotation
													End Site
													{
														OFFSET 0.000000 0.000000 0.000000
													}
												}
											}
										}
									}
									JOINT LeftHandRing1
									{
										OFFSET -0.086752 8.921708 -2.267442
										CHANNELS 3 Zrotation Yrotation Xrotation
										JOINT LeftHandRing2
										{
											OFFSET 0.000000 4.061090 0.000000
											CHANNELS 3 Zrotation Yrotation Xrotation
											JOINT LeftHandRing3
											{
												OFFSET 0.000000 3.654981 0.000000
												CHANNELS 3 Zrotation Yrotation Xrotation
												JOINT LeftHandRing4
												{
													OFFSET 0.000000 2.741236 0.000000
													CHANNELS 3 Zrotation Yrotation Xrotation
													End Site
													{
														OFFSET 0.000000 0.000000 0.000000
													}
												}
											}
										}
									}
									JOINT LeftHandPinky1
									{
										OFFSET 0.173504 7.976997 -4.467199
										CHANNELS 3 Zrotation Yrotation Xrotation
										JOINT LeftHandPinky2
										{
											OFFSET -0.000000 3.350399 -0.000000
											CHANNELS 3 Zrotation Yrotation Xrotation
											JOINT LeftHandPinky3
											{
												OFFSET 0.000000 2.842763 0.000000
												CHANNELS 3 Zrotation Yrotation Xrotation
												JOINT LeftHandPinky4
												{
													OFFSET -0.000000 2.639709 -0.000000
													CHANNELS 3 Zrotation Yrotation Xrotation
													End Site
													{
														OFFSET 0.000000 0.000000 0.000000
													}
												}
											}
										}
									}
									JOINT LeftForeArmEnd
									{
										OFFSET 0.000000 0.000000 0.000000
										CHANNELS 3 Zrotation Yrotation Xrotation
										End Site
										{
											OFFSET 0.000000 0.000000 0.000000
										}
									}
								}
								JOINT LeftArmEnd
								{
									OFFSET 0.000000 0.000000 0.000000
									CHANNELS 3 Zrotation Yrotation Xrotation
									End Site
									{
										OFFSET 0.000000 0.000000 0.000000
									}
								}
							}
						}
					}
				}
			}
		}
	}
	JOINT RightUpLeg
	{
		OFFSET -11.289943 0.000000 0.000000
		CHANNELS 3 Zrotation Yrotation Xrotation
		JOINT RightLeg
		{
			OFFSET 0.000000 -38.200325 0.000000
			CHANNELS 3 Zrotation Yrotation Xrotation
			JOINT RightFoot
			{
				OFFSET -0.000000 -39.900856 -0.000000
				CHANNELS 3 Zrotation Yrotation Xrotation
				JOINT RightToeBase
				{
					OFFSET 0.000000 0.000000 15.261641
					CHANNELS 3 Zrotation Yrotation Xrotation
					JOINT RightToeBaseEnd
					{
						OFFSET 0.000000 0.000000 7.370709
						CHANNELS 3 Zrotation Yrotation Xrotation
						End Site
						{
							OFFSET 0.000000 0.000000 0.000000
						}
					}
				}
				JOINT RightLegEnd
				{
					OFFSET 0.000000 0.000000 0.000000
					CHANNELS 3 Zrotation Yrotation Xrotation
					End Site
					{
						OFFSET 0.000000 0.000000 0.000000
					}
				}
			}
			JOINT RightUpLegEnd
			{
				OFFSET 0.000000 0.000000 0.000000
				CHANNELS 3 Zrotation Yrotation Xrotation
				End Site
				{
					OFFSET 0.000000 0.000000 0.000000
				}
			}
		}
	}
	JOINT LeftUpLeg
	{
		OFFSET 11.315661 -0.000000 0.000000
		CHANNELS 3 Zrotation Yrotation Xrotation
		JOINT LeftLeg
		{
			OFFSET -0.000000 -38.200325 -0.000000
			CHANNELS 3 Zrotation Yrotation Xrotation
			JOINT LeftFoot
			{
				OFFSET 0.000000 -39.900856 -0.000000
				CHANNELS 3 Zrotation Yrotation Xrotation
				JOINT LeftToeBase
				{
					OFFSET -0.000000 -0.000000 15.261641
					CHANNELS 3 Zrotation Yrotation Xrotation
					JOINT LeftToeBaseEnd
					{
						OFFSET 0.000000 -0.000000 7.539996
						CHANNELS 3 Zrotation Yrotation Xrotation
						End Site
						{
							OFFSET 0.000000 0.000000 0.000000
						}
					}
				}
				JOINT LeftLegEnd
				{
					OFFSET 0.000000 0.000000 0.000000
					CHANNELS 3 Zrotation Yrotation Xrotation
					End Site
					{
						OFFSET 0.000000 0.000000 0.000000
					}
				}
			}
			JOINT LeftUpLegEnd
			{
				OFFSET 0.000000 0.000000 0.000000
				CHANNELS 3 Zrotation Yrotation Xrotation
				End Site
				{
					OFFSET 0.000000 0.000000 0.000000
				}
			}
		}
	}
}
MOTION
Frames: 4
Frame Time: 0.016667
0.378779 88.792526 3.027571 -0.598934 -1.709231 -9.507538 1.159419 0.022801 6.916945 -0.884426 0.259932 2.800068 0.844812 -1.302942 3.247891 -0.700052 0.042842 4.065734 1.023336 0.825400 4.444173 0.385963 1.446728 -3.375192 -0.650319 -0.857053 -19.467325 0.000000 0.000000 0.000000 93.294724 -0.380595 9.765298 65.855881 -26.344679 4.456022 0.195192 16.648420 22.266201 6.690954 12.841537 -4.547649 19.568338 30.220219 62.396542 -8.043362 -11.603863 -19.597830 -6.008549 -7.657136 -13.542928 0.000000 0.000000 0.000000 10.590767 -10.844682 1.831647 9.482348 0.427145 1.074865 9.261982 -0.011337 1.037436 0.000000 0.000000 0.000000 9.754141 -5.200154 0.433071 8.020132 0.468993 0.399929 8.511697 -0.019344 0.344622 0.000000 0.000000 0.000000 10.063691 2.766573 0.121941 8.251813 -0.946330 -0.635018 8.174756 0.016152 -0.442689 0.000000 0.000000 0.000000 8.821574 11.357632 -1.245814 7.497656 -1.828539 -1.920242 7.392756 0.126304 -1.586292 0.000000 0.000000 0.000000 0.000000 0.000000 0.000000 0.000000 0.000000 0.000000 -90.116714 0.109277 5.815788 -71.307793 16.955275 -4.558541 -0.520761 -10.719007 45.291946 3.572706 -16.714596 -13.531549 -17.961212 -30.717138 63.836483 6.469814 8.439953 -14.837874 4.660580 5.701778 -10.458388 0.000000 0.000000 0.000000 -2.570791 -8.520597 7.825110 -3.295012 0.435528 -0.884905 -3.172781 -0.019542 -0.862732 0.000000 0.000000 0.000000 -2.537287 -3.191080 4.296937 -3.080286 0.461796 -0.384567 -3.193128 -0.023733 -0.304207 0.000000 0.000000 0.000000 -5.490495 5.219047 0.767563 -4.604331 -0.969172 0.636258 -4.672106 0.013778 0.500976 0.000000 0.000000 0.000000 -8.331350 14.458344 -3.630252 -6.253915 -1.839140 2.162367 -5.859307 0.169986 1.893166 0.000000 0.000000 0.000000 0.000000 0.000000 0.000000 0.000000 0.000000 0.000000 0.076413 -8.781249 13.123683 -0.063211 -0.678128 5.243337 -2.919194 -7.806338 18.097620 -0.751906 0.802156 -18.698334 0.000000 0.000000 0.000000 0.000000 0.000000 0.000000 0.000000 0.000000 0.000000 -0.925786 -5.733465 8.666374 0.065650 0.301116 9.690162 3.782241 0.115068 16.824123 0.388831 -0.419119 -20.632069 0.000000 0.000000 0.000000 0.000000 0.000000 0.000000 0.000000 0.000000 0.000000 
0.381646 88.791328 3.029413 -0.590791 -1.752915 -9.534775 1.143012 0.025799 6.929001 -0.875814 0.261049 2.830696 0.834567 -1.300309 3.233938 -0.695922 0.038555 4.087005 1.065186 0.817077 4.489079 0.404997 1.458183 -3.350745 -0.650534 -0.865990 -19.449617 0.000000 0.000000 0.000000 93.340973 -0.384244 9.773005 65.789879 -26.410994 4.484095 0.206820 16.657354 22.209856 6.710474 12.789959 -4.537616 19.540590 30.229559 62.426601 -8.014668 -11.544086 -19.509752 -5.984500 -7.620416 -13.482760 0.000000 0.000000 0.000000 10.417060 -10.811475 1.841091 9.356360 0.429457 1.063924 9.132982 -0.008913 1.028238 0.000000 0.000000 0.000000 9.599718 -5.171303 0.432896 7.901129 0.470001 0.395784 8.391565 -0.018525 0.341322 0.000000 0.000000 0.000000 9.962912 2.783863 0.112830 8.164346 -0.947339 -0.629466 8.079067 0.015316 -0.438209 0.000000 0.000000 0.000000 8.760938 11.363533 -1.264618 7.439916 -1.830773 -1.906585 7.332150 0.123091 -1.574885 0.000000 0.000000 0.000000 0.000000 0.000000 0.000000 0.000000 0.000000 0.000000 -90.142563 0.115507 5.797118 -71.334557 16.975550 -4.634847 -0.541890 -10.702823 45.332634 3.571799 -16.618021 -13.526318 -17.903643 -30.737175 63.898335 6.406147 8.329011 -14.655367 4.608873 5.625576 -10.336121 0.000000 0.000000 0.000000 -2.162586 -8.594736 7.929368 -3.113398 0.436584 -0.879297 -2.995109 -0.018180 -0.857024 0.000000 0.000000 0.000000 -2.151533 -3.262759 4.371161 -2.899431 0.462279 -0.381851 -3.013368 -0.023207 -0.302408 0.000000 0.000000 0.000000 -5.091314 5.148431 0.782725 -4.419234 -0.969723 0.633012 -4.478915 0.012790 0.499098 0.000000 0.000000 0.000000 -7.962901 14.403883 -3.664210 -6.096442 -1.840576 2.155747 -5.700544 0.167969 1.889078 0.000000 0.000000 0.000000 0.000000 0.000000 0.000000 0.000000 0.000000 0.000000 0.068477 -8.777181 13.147059 -0.063823 -0.681101 5.217789 -2.927883 -7.746911 18.076824 -0.754091 0.806273 -18.680668 0.000000 0.000000 0.000000 0.000000 0.000000 0.000000 0.000000 0.000000 0.000000 -0.934343 -5.705969 8.697974 0.065070 0.300136 9.690775 3.778689 0.148312 16.802378 0.386313 -0.417583 -20.634897 0.000000 0.000000 0.000000 0.000000 0.000000 0.000000 0.000000 0.000000 0.000000 
0.385563 88.790993 3.033019 -0.579945 -1.798416 -9.557923 1.125761 0.029396 6.941096 -0.866848 0.262019 2.855398 0.820163 -1.296918 3.223563 -0.694074 0.033159 4.104259 1.109081 0.808653 4.522899 0.423618 1.467327 -3.332071 -0.651972 -0.874984 -19.426752 0.000000 0.000000 0.000000 93.386108 -0.388569 9.782383 65.717720 -26.504978 4.514696 0.217239 16.650545 22.152519 6.745075 12.737172 -4.528189 19.518888 30.236620 62.449757 -7.993318 -11.496165 -19.440605 -5.966136 -7.591856 -13.435896 0.000000 0.000000 0.000000 10.291766 -10.783575 1.821634 9.248412 0.431088 1.053810 9.022212 -0.007165 1.019839 0.000000 0.000000 0.000000 9.490463 -5.149221 0.413261 7.800624 0.470728 0.392172 8.290338 -0.017966 0.338453 0.000000 0.000000 0.000000 9.897220 2.794195 0.095799 8.093886 -0.948002 -0.624755 8.001143 0.014757 -0.434338 0.000000 0.000000 0.000000 8.726682 11.362835 -1.282111 7.396658 -1.831691 -1.895002 7.284740 0.120917 -1.565668 0.000000 0.000000 0.000000 0.000000 0.000000 0.000000 0.000000 0.000000 0.000000 -90.162560 0.121573 5.780821 -71.360474 17.011517 -4.717925 -0.566451 -10.678746 45.360199 3.531620 -16.562256 -13.533672 -17.864132 -30.751307 63.941776 6.361989 8.253817 -14.527953 4.572990 5.573185 -10.252314 0.000000 0.000000 0.000000 -1.877808 -8.644862 7.973778 -2.986504 0.437012 -0.875178 -2.872227 -0.017427 -0.852273 0.000000 0.000000 0.000000 -1.883875 -3.312576 4.403502 -2.773288 0.462503 -0.379763 -2.886925 -0.022971 -0.301070 0.000000 0.000000 0.000000 -4.809060 5.097589 0.780482 -4.289213 -0.969826 0.630482 -4.340247 0.012162 0.497738 0.000000 0.000000 0.000000 -7.702225 14.363803 -3.691263 -5.986453 -1.840662 2.150425 -5.591124 0.167020 1.886331 0.000000 0.000000 0.000000 0.000000 0.000000 0.000000 0.000000 0.000000 0.000000 0.056524 -8.772351 13.169382 -0.064437 -0.684042 5.190870 -2.934931 -7.687788 18.056183 -0.756822 0.810332 -18.663879 0.000000 0.000000 0.000000 0.000000 0.000000 0.000000 0.000000 0.000000 0.000000 -0.947121 -5.676164 8.726295 0.064457 0.299542 9.689293 3.774172 0.181216 16.781858 0.383972 -0.416079 -20.637165 0.000000 0.000000 0.000000 0.000000 0.000000 0.000000 0.000000 0.000000 0.000000 
0.390581 88.791672 3.038435 -0.567124 -1.843895 -9.577434 1.108119 0.033475 6.953587 -0.857106 0.262312 2.873338 0.801439 -1.291831 3.218043 -0.693734 0.027010 4.116845 1.153535 0.800713 4.547069 0.440943 1.473912 -3.318476 -0.654501 -0.883902 -19.398672 0.000000 0.000000 0.000000 93.429245 -0.393267 9.794236 65.640625 -26.625145 4.546900 0.225516 16.626873 22.094532 6.795834 12.679458 -4.517903 19.505676 30.240744 62.463627 -7.981434 -11.465185 -19.397896 -5.955296 -7.574596 -13.407326 0.000000 0.000000 0.000000 10.232146 -10.763802 1.770502 9.170710 0.431678 1.045942 8.942533 -0.006442 1.013542 0.000000 0.000000 0.000000 9.442156 -5.136662 0.373575 7.730623 0.471055 0.389635 8.220133 -0.017778 0.336464 0.000000 0.000000 0.000000 9.880788 2.795217 0.072894 8.051682 -0.948127 -0.621576 7.952513 0.014605 -0.431555 0.000000 0.000000 0.000000 8.732100 11.353945 -1.291990 7.377363 -1.830874 -1.887409 7.260342 0.120164 -1.560130 0.000000 0.000000 0.000000 0.000000 0.000000 0.000000 0.000000 0.000000 0.000000 -90.176254 0.126737 5.769535 -71.385674 17.067698 -4.807005 -0.592948 -10.640122 45.369686 3.461826 -16.537426 -13.560022 -17.842115 -30.759516 63.966801 6.337403 8.213601 -14.455092 4.552962 5.544241 -10.206555 0.000000 0.000000 0.000000 -1.715476 -8.670322 7.962861 -2.907661 0.436678 -0.873313 -2.797005 -0.017418 -0.849290 0.000000 0.000000 0.000000 -1.734073 -3.340245 4.398088 -2.694991 0.462391 -0.378581 -2.806722 -0.023071 -0.300445 0.000000 0.000000 0.000000 -4.645961 5.066557 0.765755 -4.208028 -0.969450 0.628952 -4.250183 0.011926 0.497126 0.000000 0.000000 0.000000 -7.550869 14.337605 -3.705779 -5.918326 -1.839348 2.146928 -5.525678 0.167195 1.885366 0.000000 0.000000 0.000000 0.000000 0.000000 0.000000 0.000000 0.000000 0.000000 0.040665 -8.767347 13.191414 -0.065038 -0.686748 5.162586 -2.939391 -7.629723 18.038717 -0.759746 0.814056 -18.649498 0.000000 0.000000 0.000000 0.000000 0.000000 0.000000 0.000000 0.000000 0.000000 -0.963712 -5.645409 8.750711 0.063838 0.299484 9.684416 3.770175 0.213461 16.766048 0.381918 -0.414587 -20.639774 0.000000 0.000000 0.000000 0.000000 0.000000 0.000000 0.000000 0.000000 0.000000 
